<svg width="27" height="28" viewBox="0 0 27 28" fill="none" xmlns="http://www.w3.org/2000/svg">
<path d="M26.771 1.0872C26.4656 0.781798 25.9704 0.781814 25.665 1.0872L13.5 13.2523L1.33495 1.0872C1.02956 0.781814 0.534439 0.781798 0.229046 1.0872C-0.0763565 1.39259 -0.0763409 1.88775 0.229046 2.19314L12.3941 14.3582L0.229046 26.5232C-0.0763409 26.8286 -0.0763565 27.3238 0.229046 27.6292C0.534439 27.9346 1.02958 27.9346 1.33496 27.6292L13.5 15.4641L25.665 27.6292C25.9704 27.9346 26.4656 27.9346 26.771 27.6292C27.0764 27.3238 27.0763 26.8286 26.771 26.5232L14.6059 14.3582L26.771 2.19314C27.0763 1.88774 27.0764 1.39259 26.771 1.0872Z" fill="black"/>
</svg>
